<svg xmlns="http://www.w3.org/2000/svg" width="88" height="77.022" viewBox="0 0 88 77.022"><defs><style>.a{fill:#fff;}</style></defs><g transform="translate(0 -3.392)"><path class="a" d="M.285,19.392l38.662,48-17.537-48Z" transform="translate(0.176 9.887)"/><path class="a" d="M15.472,19.392,34.156,70.528,53.207,19.392Z" transform="translate(9.56 9.887)"/><path class="a" d="M29.593,68.627,69.251,19.392H47.934Z" transform="translate(18.286 9.887)"/><path class="a" d="M54.307,3.392H29.3L46.445,24.5Z" transform="translate(18.103 0)"/><path class="a" d="M51.563,25.68,33.929,3.979,16.3,25.68Z" transform="translate(10.07 0.363)"/><path class="a" d="M34.653,3.392H9.625L17.389,24.64Z" transform="translate(5.947 0)"/><path class="a" d="M12.877,4.658,0,25.261H20.4Z" transform="translate(0 0.782)"/><path class="a" d="M62.249,25.269,49.359,4.645,41.674,25.269Z" transform="translate(25.751 0.774)"/></g></svg>