<svg xmlns="http://www.w3.org/2000/svg" xmlns:xlink="http://www.w3.org/1999/xlink" width="77.807" height="104" viewBox="0 0 77.807 104"><defs><style>.a{fill:url(#a);}</style><radialGradient id="a" cx="0.5" cy="0.5" r="0.5" gradientTransform="translate(0 0)" gradientUnits="objectBoundingBox"><stop offset="0" stop-color="#a4d751"/><stop offset="1" stop-color="#7fa149"/></radialGradient></defs><g transform="translate(-16.9 -13.5)"><path class="a" d="M83.922,42.774a2.485,2.485,0,0,1-2.311,2.311H30a2.485,2.485,0,0,1-2.311-2.311V28.522A2.485,2.485,0,0,1,30,26.211H82a2.485,2.485,0,0,1,2.311,2.311V42.774ZM75.833,65.115a6.548,6.548,0,1,1,6.548-6.548C82,62.033,79.3,65.115,75.833,65.115m0,20.03A6.548,6.548,0,1,1,82.381,78.6C82,82.063,79.3,85.144,75.833,85.144m0,19.644a6.548,6.548,0,1,1,6.548-6.548c-.385,3.852-3.081,6.548-6.548,6.548M55.8,65.115a6.548,6.548,0,1,1,6.548-6.548A6.75,6.75,0,0,1,55.8,65.115m0,20.03A6.548,6.548,0,1,1,62.352,78.6,6.75,6.75,0,0,1,55.8,85.144m0,19.644a6.548,6.548,0,1,1,6.548-6.548,6.492,6.492,0,0,1-6.548,6.548M35.774,65.115a6.548,6.548,0,0,1,0-13.1,6.75,6.75,0,0,1,6.548,6.548,6.492,6.492,0,0,1-6.548,6.548m0,20.03a6.548,6.548,0,0,1,0-13.1A6.75,6.75,0,0,1,42.322,78.6a6.492,6.492,0,0,1-6.548,6.548m0,19.644a6.548,6.548,0,0,1,0-13.1,6.75,6.75,0,0,1,6.548,6.548,6.269,6.269,0,0,1-6.548,6.548M16.9,13.5v97.067a6.9,6.9,0,0,0,6.933,6.933H87.774a6.9,6.9,0,0,0,6.933-6.933V13.5Z" transform="translate(0 0)"/><path class="a" d="M39.374,19.5a1.021,1.021,0,0,0-1.156,1.156v3.081H33.211V20.656a1.156,1.156,0,1,0-2.311,0v4.237a1.021,1.021,0,0,0,1.156,1.156h6.933a1.021,1.021,0,0,0,1.156-1.156V20.656c.385-.77,0-1.156-.77-1.156" transform="translate(39.926 17.111)"/><path class="a" d="M39.089,17.3H32.156A1.021,1.021,0,0,0,31,18.456v4.237a1.156,1.156,0,0,0,2.311,0V19.611h5.007v3.081a1.156,1.156,0,1,0,2.311,0V18.456c-.385-.77-.77-1.156-1.541-1.156" transform="translate(40.211 10.837)"/></g></svg>