<svg xmlns="http://www.w3.org/2000/svg" width="24" height="21.072" viewBox="0 0 24 21.072"><defs><style>.a{fill:#fff;}</style></defs><g transform="translate(0 -25.576)"><path class="a" d="M14.281,222.2a.827.827,0,0,1-.828.826H10.545a.827.827,0,0,1-.825-.826v-2.79H0v7.544a2.433,2.433,0,0,0,2.434,2.433H21.567A2.434,2.434,0,0,0,24,226.956v-7.545H14.281Z" transform="translate(0 -182.741)"/><path class="a" d="M21.567,118.462H2.434A2.434,2.434,0,0,0,0,120.9v2.371H9.72v-.575a.825.825,0,0,1,.825-.825h2.908a.826.826,0,0,1,.828.825v.575H24V120.9A2.434,2.434,0,0,0,21.567,118.462Z" transform="translate(0 -87.57)"/><path class="a" d="M135.612,29.9a.9.9,0,0,0,.895-.9V27.971a2.4,2.4,0,0,0-2.394-2.395h-4.671a2.4,2.4,0,0,0-2.392,2.395V29a.895.895,0,1,0,1.789,0V27.971a.6.6,0,0,1,.6-.6h4.671a.606.606,0,0,1,.606.6V29A.9.9,0,0,0,135.612,29.9Z" transform="translate(-119.777)"/><path class="a" d="M186.835,194.927v4.043h2.613v-4.043Z" transform="translate(-176.141 -159.658)"/></g></svg>