<?xml version="1.0" standalone="no"?>
<!DOCTYPE svg PUBLIC "-//W3C//DTD SVG 20010904//EN"
 "http://www.w3.org/TR/2001/REC-SVG-20010904/DTD/svg10.dtd">
<svg version="1.0" xmlns="http://www.w3.org/2000/svg"
 width="1024.000000pt" height="1024.000000pt" viewBox="0 0 1024.000000 1024.000000"
 preserveAspectRatio="xMidYMid meet">

<g transform="translate(0.000000,1024.000000) scale(0.100000,-0.100000)"
fill="#B3B6C5" stroke="none">
<path d="M4890 10053 c-617 -33 -1162 -159 -1714 -393 -783 -332 -1493 -891
-2013 -1585 -965 -1285 -1238 -2981 -728 -4520 142 -428 392 -921 655 -1288
657 -922 1575 -1574 2663 -1892 499 -146 1081 -214 1594 -187 743 40 1379 209
2018 536 1150 588 2013 1586 2430 2808 439 1289 322 2719 -322 3920 -143 267
-303 509 -498 753 -813 1015 -2002 1675 -3280 1819 -271 31 -577 42 -805 29z
m400 -1173 c293 -14 500 -45 760 -111 1295 -330 2321 -1327 2690 -2613 185
-643 192 -1353 20 -2001 -338 -1273 -1327 -2286 -2589 -2650 -1011 -293 -2097
-151 -2995 390 -510 307 -974 771 -1281 1280 -718 1193 -720 2695 -4 3882 270
448 653 858 1079 1155 592 412 1302 648 2025 671 44 2 85 4 90 5 6 1 98 -3
205 -8z"/>
<path d="M5768 5595 c-769 -756 -1402 -1375 -1406 -1375 -5 0 -294 294 -642
652 -348 359 -635 652 -637 651 -12 -5 -833 -807 -833 -813 0 -7 2070 -2143
2087 -2153 9 -6 3645 3565 3644 3578 0 3 -184 192 -408 421 l-408 414 -1397
-1375z"/>
</g>
</svg>
