<svg xmlns="http://www.w3.org/2000/svg" width="19.415" height="19.415" viewBox="0 0 19.415 19.415"><defs><style>.a{fill:#fff;}</style></defs><g transform="translate(11.346)"><path class="a" d="M302.646,3.315a1.7,1.7,0,0,0-.5-1.206L300.537.5A1.744,1.744,0,0,0,299.32,0h-.1V3.413h3.424v-.1Z" transform="translate(-299.222 0)"/></g><path class="a" d="M10.388,11.738a2.283,2.283,0,0,1,.547-.888l3.851-3.836V4.55h-4a.553.553,0,0,1-.55-.569V0H1.706A1.708,1.708,0,0,0,0,1.706v16a1.708,1.708,0,0,0,1.706,1.706H13.064a1.721,1.721,0,0,0,1.722-1.706V13.463l-.625.61a2.262,2.262,0,0,1-.884.545l-1.809.6-.276.015a1.422,1.422,0,0,1-1.348-1.874Zm-7.544-1.5h5.67a.569.569,0,0,1,0,1.138H2.844a.569.569,0,1,1,0-1.138ZM2.275,8.532a.568.568,0,0,1,.569-.569h5.67a.569.569,0,0,1,0,1.138H2.844A.568.568,0,0,1,2.275,8.532Zm0,4.55a.568.568,0,0,1,.569-.569h5.67a.569.569,0,0,1,0,1.138H2.844A.568.568,0,0,1,2.275,13.082Zm8.514,2.844a.569.569,0,1,1,0,1.138H7.376a.569.569,0,1,1,0-1.138Zm-7.945-9.1a.569.569,0,1,1,0-1.138h7.945a.569.569,0,1,1,0,1.138Z"/><g transform="translate(10.908 12.241)"><path class="a" d="M288.173,322.808l-.495,1.485a.284.284,0,0,0,.36.36l1.484-.5Z" transform="translate(-287.663 -322.808)"/></g><g transform="translate(12.09 7.558)"><path class="a" d="M322.566,199.307l-3.746,3.746,1.616,1.616,3.746-3.746Z" transform="translate(-318.82 -199.307)"/></g><g transform="translate(16.64 5.61)"><path class="a" d="M441.26,148.265a1.188,1.188,0,0,0-1.614,0l-.827.827,1.615,1.615.827-.827A1.145,1.145,0,0,0,441.26,148.265Z" transform="translate(-438.819 -147.949)"/></g><g transform="translate(19.082 7.531)"><path class="a" d="M503.215,198.811h0l0,0Z" transform="translate(-503.215 -198.8)"/><path class="a" d="M503.3,198.68l0-.005Z" transform="translate(-503.3 -198.672)"/><path class="a" d="M503.436,198.6Z" transform="translate(-503.428 -198.602)"/></g></svg>