<svg xmlns="http://www.w3.org/2000/svg" width="22" height="21.94" viewBox="0 0 22 21.94"><defs><style>.a{fill:#fff;stroke:#0078b3;stroke-miterlimit:10;stroke-width:2px;}.b{fill:#0078b3;}</style></defs><g transform="translate(1 1)"><path class="a" d="M26.629,30.64H13.771A3.582,3.582,0,0,1,10.2,27.069v-12.8A3.582,3.582,0,0,1,13.771,10.7H26.629A3.582,3.582,0,0,1,30.2,14.271V27.129A3.57,3.57,0,0,1,26.629,30.64Z" transform="translate(-10.2 -10.7)"/><g transform="translate(6.726 1.905)"><path class="b" d="M23.048,25.276H21.56V22.3H26.5v8.1h1.548v2.976H21.5V30.4h1.548Z" transform="translate(-21.5 -17.3)"/><path class="b" d="M27.586,15.924a2.146,2.146,0,1,0-2.143,2.024,2.073,2.073,0,0,0,2.143-2.024" transform="translate(-22.229 -13.9)"/></g></g></svg>