<svg xmlns="http://www.w3.org/2000/svg" xmlns:xlink="http://www.w3.org/1999/xlink" width="124" height="82.974" viewBox="0 0 124 82.974"><defs><style>.a{fill:url(#a);}</style><linearGradient id="a" x1="0.5" x2="0.5" y2="1" gradientUnits="objectBoundingBox"><stop offset="0" stop-color="#f36c0d"/><stop offset="1" stop-color="#7a3607"/></linearGradient></defs><g transform="translate(20.102 12.265)"><path class="a" d="M100.652,79.845H19.061a.922.922,0,0,1,0-1.844H97.887l-9.68-18.439-9.68,9.68a1.693,1.693,0,0,1-1.383.461c-.461,0-.922-.461-1.383-.922l-10.6-20.743-9.68,9.68a1.693,1.693,0,0,1-1.383.461c-.461,0-.922-.461-1.383-.922L42.11,36.514l-9.68,9.68a1.693,1.693,0,0,1-1.383.461c-.461,0-.922-.461-1.383-.922L18.139,23.146a1.755,1.755,0,0,1,3.227-1.383l10.6,20.743,9.219-10.6c.461-.461.922-.461,1.844-.461.461,0,.922.461,1.383.922l10.6,20.743,9.68-9.68a1.693,1.693,0,0,1,1.383-.461c.461,0,.922.461,1.383.922l10.6,20.283,9.68-9.68a1.693,1.693,0,0,1,1.383-.461c.461,0,.922.461,1.383.922L99.27,72.47V21.764a.922.922,0,0,1,1.844,0v57.16c.461.461,0,.922-.461.922" transform="translate(-17.959 -20.661)"/></g><path class="a" d="M137.5,22.61V96.364s0,4.61-4.61,4.61H18.11s-4.61,0-4.61-4.61V22.61S13.5,18,18.11,18H132.89S137.5,18,137.5,22.61ZM133.351,47.5a1.383,1.383,0,0,0-2.766,0c0,.461.461.922,1.383.922S133.351,47.963,133.351,47.5Zm0,7.836a1.383,1.383,0,1,0-1.383,1.383Q133.351,56.03,133.351,55.338Zm0,7.375a1.383,1.383,0,1,0-1.383,1.383A1.222,1.222,0,0,0,133.351,62.714Zm0,7.836c0-.461-.461-.922-1.383-.922-.461,0-1.383.461-1.383.922a1.472,1.472,0,0,0,1.383,1.383A1.222,1.222,0,0,0,133.351,70.55ZM17.649,53.033a.9.9,0,0,0-.922.922V64.1a.9.9,0,0,0,.922.922h1.383a.9.9,0,0,0,.922-.922V53.955a.9.9,0,0,0-.922-.922H17.649ZM24.1,24.454V94.52H126.9V24.454Z" transform="translate(-13.5 -18)"/></svg>