<svg xmlns="http://www.w3.org/2000/svg" width="28" height="17.799" viewBox="0 0 28 17.799"><defs><style>.a{fill:#0078b3;}</style></defs><g transform="translate(-13.6 -18.3)"><path class="a" d="M41.6,35.683V18.82c0-.1-.1-.1-.1-.208a.1.1,0,0,0-.1-.1h0l-.1-.1-.1-.1H14.12c-.1,0-.1.1-.208.1l-.1.1h0a.1.1,0,0,1-.1.1l-.1.1V35.683c0,.1,0,.1.1.1a.1.1,0,0,0,.1.1h0l.1.1.1.1H40.559a.787.787,0,0,0,.416-.1l.1-.1a.224.224,0,0,0,.208-.208h0a.1.1,0,0,1,.1-.1c0-.1.1-.1.1-.208C41.6,35.787,41.6,35.683,41.6,35.683ZM15.37,21.11l7.494,6.245L15.37,33.6Zm12.178,7.807L16.931,20.07H38.165ZM24.217,28.5l2.706,2.29a1.479,1.479,0,0,0,.625.208,1.479,1.479,0,0,0,.625-.208l2.706-2.29,7.286,6.037H16.931Zm8.119-1.145L39.83,21.11V33.6Z" transform="translate(0 0)"/></g></svg>