<svg xmlns="http://www.w3.org/2000/svg" width="17.445" height="24" viewBox="0 0 17.445 24"><defs><style>.a{fill:#0078b3;}</style></defs><g transform="translate(-17.275 -13.5)"><path class="a" d="M34.542,24.789V30.3c0,5.156-3.2,7.2-7.2,7.2a7.032,7.032,0,0,1-5.6-2.756c-1.6-1.778-4.356-9.689-4.356-9.689a1.717,1.717,0,0,1,1.067-2.222,1.127,1.127,0,0,1,.533-.089A1.823,1.823,0,0,1,20.675,23.9l1.511,3.822V15.1a1.6,1.6,0,0,1,3.2,0v6.667a1.6,1.6,0,0,1,3.2,0v1.067A1.558,1.558,0,0,1,30.1,21.322a1.593,1.593,0,0,1,1.6,1.6v1.244A1.521,1.521,0,0,1,33.119,23.1a1.593,1.593,0,0,1,1.6,1.6v.089Z" transform="translate(0 0)"/></g></svg>